<svg id="Camada_1" data-name="Camada 1" xmlns="http://www.w3.org/2000/svg" viewBox="0 0 1000 1000"><defs><style>.cls-1{fill:#0255a2;}.cls-1,.cls-2,.cls-3{fill-rule:evenodd;}.cls-2{fill:#a54599;}.cls-3{fill:#00a88f;}.cls-4{fill:#fff;}</style></defs><path class="cls-1" d="M767.8,594.81c-8.53,56.41-14.2,68.3-44.44,120.2-82.07-71.31-170.31-158.64-238.2-246.55,44.14-37.21,85.56-79,139.86-99.67,126-17.86,153.76,123.42,142.78,226"/><path class="cls-2" d="M653.09,189.67c41.29,26.58,80.09,82.84,39,117.8C631.52,357.77,540.8,409.83,470.54,449c-20.51-27.84-44.9-61.7-58.4-93.72-28-67.12-14.63-148,56.2-181.95,57.94-27.75,132.31-20.14,184.75,16.3h0"/><path class="cls-3" d="M457.61,486.13l-.2-.26q-54.59,33.06-84.62,56.38c-72.52,55.54-116.13,145.92-55.72,230.12,85.67,119.37,316.51,100.25,406-10.83Q585.66,638,458.24,485.71Z"/><path d="M470.54,449c67.2-37.51,154.32-87.51,211.24-135.56,1.56-1.42,3.43-2.23,2.27-.67-8.08,11-24.75,23.82-32.55,30.55-6.24,5.4-12.6,11.06-14.69,16.59-1.92,5.1-.06,10.32,5.18,10-43.38,30.2-105.43,66.21-156.83,98.48,64.12,83,147.48,165.53,225,232.89,28.56-49,34.59-93.4,35-148.39a70.4,70.4,0,0,0,32.69,0C776.58,611.74,763,671.8,733.44,722.83c38,34.41,77.46,66.85,115.73,100.92-27.07-7.72-42.92-7-50.52,0l-83.87-74.61C599.61,830.85,382.49,869.46,303.88,751c-88.17-132.89,37.94-225.51,137.68-286C412.9,424.66,384.88,383.18,374,334c-16.31-78.36,20.84-150.88,98.56-176.2,57.23-18.66,115.47-11.85,169.54,12.49q-.5,9.24-.49,17.48c0,5.17.16,11,.49,17.49C592.85,171,522.81,163.54,468.47,189.9c-66.72,31.61-79.13,107.94-52.83,171,12.69,30.11,35.62,61.94,54.9,88.11m-12.86,37-.17-.23q-47.88,29-74.23,49.45c-63.6,48.73-101.86,128-48.86,201.85,75.13,104.71,277.62,87.94,356.09-9.49Q570,619.33,458.24,485.71Z"/><path class="cls-4" d="M580.44,385.91c-37.33,23.22-75.91,45.1-109.52,63.85l-.61.34-.43-.57c-9.65-13.1-20.21-27.63-29.94-42.62s-18.68-30.55-25-45.65h0c-13.94-33.41-17.06-70.54-7.08-102.84,9-29,28.52-54.19,60.3-69.25,27-13.11,57.92-17.9,88.22-15.23s60.16,12.86,84.91,29.69c-.12-2.64-.21-5.18-.29-7.62q-.12-4.49-.12-8.27,0-8,.47-17c-27.58-12.36-56.23-20.13-85.29-22.27a215.53,215.53,0,0,0-83.17,10c-38.13,12.43-66.43,36.25-83.38,66.55-17.43,31.17-22.86,69.19-14.64,108.71,5.4,24.52,15.09,47.12,27,68.63s26.07,42,40.4,62.13l.51.72-.75.45c-49.8,30.18-106.18,68.39-139.07,115.59s-42.21,103.12,1.64,169.21c.62.94,1.26,1.88,1.92,2.83,39.19,56.21,110.71,75.55,186.85,71.11s157.1-32.74,214.82-71.7q3.11-2.1,6.18-4.28l.52-.38.48.43,83.33,74.14c4-3.31,9.83-5.15,18-5.24,7.67-.09,17.38,1.37,29.41,4.6-16.57-14.7-33.31-29.08-50-43.47-21.17-18.18-42.33-36.37-63.06-55.13l-.49-.44.33-.57a316,316,0,0,0,32-78.79A392.5,392.5,0,0,0,777,554a71.1,71.1,0,0,1-15.46,1.71A72.89,72.89,0,0,1,746,554c-.24,27.16-1.87,51.74-7,75.59a239.66,239.66,0,0,1-28.15,72.2l-.49.84-.74-.64C668.4,666.14,625.52,626,584.76,583.85c-35.91-37.17-70.18-76-100.24-114.89l-.55-.71.76-.48c17-10.7,35.22-21.79,53.51-32.94,36.19-22.08,72.77-44.4,101.49-64.26a5.22,5.22,0,0,1-.56-.18,5.64,5.64,0,0,1-2.82-2.38,7.59,7.59,0,0,1-1.08-3.67,11.7,11.7,0,0,1,.78-4.67,27.47,27.47,0,0,1,6-8.63c2.65-2.8,5.82-5.58,9-8.3,1.49-1.29,3.35-2.83,5.41-4.54,7.68-6.4,18.29-15.23,25-23.34-28.35,23.8-64,48.07-101,71.05M470.76,448c33.46-18.68,71.8-40.43,108.83-63.46,37.26-23.17,73.24-47.66,101.67-71.67a8.34,8.34,0,0,1,2.41-1.59,1.51,1.51,0,0,1,.76-.1h0a.87.87,0,0,1,.77,1h0a2.18,2.18,0,0,1-.51,1.11c-6.58,8.92-18.72,19-27.29,26.16-2,1.69-3.86,3.21-5.38,4.53-3.1,2.68-6.24,5.42-8.85,8.18a25.8,25.8,0,0,0-5.61,8.08,9.91,9.91,0,0,0-.68,4,6.23,6.23,0,0,0,.83,2.9,4.19,4.19,0,0,0,2,1.7,5.43,5.43,0,0,0,2.2.31l2.86-.15-2.35,1.64c-29.07,20.23-66.44,43-103.38,65.56-18,11-36,21.93-52.72,32.46,29.87,38.62,63.9,77.12,99.57,114,40.48,41.9,83.06,81.75,124,117.38a237.44,237.44,0,0,0,27.46-70.87c5.12-24,6.72-48.83,6.93-76.27v-1l1,.22a72.42,72.42,0,0,0,16.22,1.91,69.89,69.89,0,0,0,16.11-1.91l1-.24,0,1.05a394.83,394.83,0,0,1-12.39,91.08,318.14,318.14,0,0,1-31.8,78.62C755.05,741.27,776,759.3,797,777.32c17.65,15.17,35.31,30.34,52.69,45.82l2.67,2.38-3.42-1c-13.47-3.84-24.12-5.57-32.34-5.48s-13.76,2-17.41,5.3l-.55.49-.53-.48-83.39-74.19c-1.86,1.32-3.76,2.62-5.7,3.93-57.93,39.12-139.09,67.51-215.63,72S344.71,811,305.15,754.28q-1-1.38-1.95-2.85c-44.32-66.79-34.77-123.48-1.61-171.06,32.89-47.21,89-85.39,138.8-115.59-14.16-19.95-28.15-40.2-40-61.57-12-21.63-21.72-44.38-27.16-69.08h0c-8.3-39.92-2.8-78.34,14.83-109.85,17.14-30.65,45.76-54.75,84.28-67.3a217.19,217.19,0,0,1,83.79-10.11c29.42,2.16,58.43,10.07,86.34,22.63l.5.23,0,.56q-.48,9.18-.49,17.44c0,2.64,0,5.39.12,8.22s.21,6,.37,9.23l.09,1.65-1.36-.94c-24.77-17.22-54.83-27.63-85.49-30.33-30-2.65-60.62,2.1-87.37,15.08h0c-31.33,14.84-50.6,39.63-59.45,68.26-9.86,31.93-6.76,68.65,7,101.72h0c6.32,15,15.21,30.44,24.92,45.4C450.88,420.79,461.25,435.07,470.76,448ZM457.3,486.93Q434,501.09,415.72,513.24,397,525.7,383.78,536h0c-34.09,26.12-60.87,61-70.1,99.14-7.9,32.66-2.92,67.69,21.41,101.58a146,146,0,0,0,26.27,27.91c37.95,31.11,91.2,44.66,145.13,43s108.58-18.53,149.27-48.24a180.26,180.26,0,0,0,33.65-31.59q-60-53.94-117.77-114.2T458.09,486.79l-.61.39Zm-.2-1.78.63-.39.15.22.52-.34.46.55q55.92,66.75,113.94,127.22T691.05,727.05l.58.52-.49.6a180.92,180.92,0,0,1-34.44,32.49c-40.94,29.9-95.9,46.88-150.17,48.55s-107.93-12-146.2-43.36a148,148,0,0,1-26.57-28.22c-24.63-34.32-29.67-69.82-21.66-102.92,9.32-38.5,36.32-73.73,70.69-100.05q13.29-10.27,32-22.78Q433.28,499.58,457.1,485.15Z"/><path d="M725.45,642.31c24.4-5.11,47.5-9,69.19-11.65a507.86,507.86,0,0,1,60-4c11.88,0,20.19,1.53,25.16,4.36s7.44,7.4,7.44,13.83c-.21,6.53-7.33,10.56-21.47,12.09-7.56.86-13.82,1.52-18.68,2.17q-45.18,6.38-94,18c-32.5,7.73-50.63,11.65-54.2,11.65-7.34,0-12.73-2.39-16.29-7.29s-5.19-12.42-5.19-22.33q0-17.31,27.21-116.3,27.2-99.15,67.25-217.47c.65-1.63,1.51-4,2.59-7,8.42-24.51,19.21-36.71,32.5-36.71,12.3,0,22.23,1.53,29.89,4.47s11.55,7,11.55,11.87c0,3.81-3,10.35-9.17,19.71l-.65,1.31Q795,420.76,765.4,505.76q-29.49,84.76-39.95,136.55M204.06,336.75a3.66,3.66,0,0,0-.32-1.09,4.49,4.49,0,0,1-.33-1.74v-7.74c0-14.26,6.59-24.93,19.65-32s32.7-10.57,58.83-10.57q31.91,0,57.64,9.15c17.17,6,30.88,14.49,41.24,25.27a159.35,159.35,0,0,1,25.48,34.74c6.36,12,9.6,22.21,9.6,30.7q0,24.68-32,51.29t-88.52,48.68q33.84,2.44,56.79,24.07c15.22,14.37,22.88,30.93,22.88,49.87,0,11.33-3.35,22.55-9.93,33.76s-16.3,22.21-28.93,32.89a304.41,304.41,0,0,1-83,49.44q-45,17.81-86.68,17.86c-16.3,0-29.26-3.81-39.08-11.44s-14.69-17-14.69-27.77q0-22.05,25.8-114T204.06,336.75ZM208.49,477q76.26-17.81,121.65-50.21t45.56-67.41c0-9.36-3.78-16-11.23-20s-20.4-6.1-38.75-6.1a325.7,325.7,0,0,0-38.54,2.18A257.53,257.53,0,0,0,254,341.87q-12.94,33.81-24.4,67.62Q218.32,443.14,208.49,477Zm-55,173.36a23.81,23.81,0,0,0,9.61,5.88c3.67,1.2,8.74,1.74,15,1.74,16.3,0,36.27-6.2,60.24-18.62s47.17-29.18,69.95-50c8.42-7.62,14.9-15,19.32-22.22s6.59-13.83,6.59-20.25c0-10.35-5.83-18.4-17.49-24.07s-28.28-8.49-49.76-8.49a360.21,360.21,0,0,0-37.46,2,324.9,324.9,0,0,0-36.49,5.77c-7.77,20.36-15,41.16-21.48,62.4S159,627.61,153.54,650.37Z"/><path class="cls-4" d="M761.56,638.57q-17.28,2.91-35.49,6.74l-4.5.94.91-4.54q5.22-26.09,15.25-60.29t24.8-76.67q14.93-42.79,33.2-89.43t40.06-97.53l.08-.16.65-1.3.1-.22.08-.11a96,96,0,0,0,6.68-11.54q2-4.27,2-6.48a6.41,6.41,0,0,0-2-4.53,21,21,0,0,0-7.55-4.48h0a60.52,60.52,0,0,0-12.65-3.17A109.46,109.46,0,0,0,807,284.71q-8.62,0-15.82,8.13-7.71,8.71-13.82,26.5v.06l-.68,1.84c-.73,2-1.34,3.69-1.9,5.1q-20,59.15-36.78,113.44T707.54,543.59Q694,592.92,687.17,622.05q-6.72,28.71-6.71,37a55.34,55.34,0,0,0,1.21,12.37A23.46,23.46,0,0,0,685,679.6a13.57,13.57,0,0,0,5.51,4.49,20.46,20.46,0,0,0,8.34,1.55c1.59,0,6.81-1,15.62-2.86q13.47-2.89,37.89-8.71t48.07-10.32q23.56-4.5,46.23-7.7h0c3.58-.48,7.5-.92,12-1.43l6.71-.76h0q10-1.08,14.81-3.79,3.81-2.15,4-5.25h0a14.13,14.13,0,0,0-1.48-6.8,11,11,0,0,0-4.41-4.37,28.65,28.65,0,0,0-9.14-2.9,86.45,86.45,0,0,0-14.53-1q-13.65,0-28.51,1t-31.15,3q-16.29,1.95-33.44,4.86m-32.21-.19q16-3.28,31.21-5.85,17.46-3,33.73-4.91t31.46-3q15.19-1,28.91-1a92.67,92.67,0,0,1,15.55,1.13,34.59,34.59,0,0,1,11.09,3.63,17.06,17.06,0,0,1,6.77,6.76,20.23,20.23,0,0,1,2.24,9.73v.09c-.15,4.42-2.5,7.93-7.08,10.5q-5.9,3.33-17.09,4.54h0l-6.73.76c-4.72.53-8.79,1-11.87,1.4h0q-22.53,3.17-45.94,7.65T753.77,680q-24.33,5.79-38,8.73-13.89,3-16.88,3a26.2,26.2,0,0,1-10.79-2.07,19.54,19.54,0,0,1-8-6.48l0,0a29.27,29.27,0,0,1-4.37-10.34,60.82,60.82,0,0,1-1.39-13.76q0-9,6.88-38.43,6.79-29,20.44-78.69t30.45-104Q749,383.58,769,324.33l.06-.16c.44-1.11,1.09-2.89,1.87-5l.68-1.85h0q6.52-18.92,15-28.52,9-10.2,20.34-10.19a116.52,116.52,0,0,1,17,1.15,66.33,66.33,0,0,1,13.93,3.51h0a26.9,26.9,0,0,1,9.73,5.9,12.37,12.37,0,0,1,3.79,8.83q0,3.51-2.58,9.07a100.31,100.31,0,0,1-7,12.21l-.47.94h0q-21.71,50.71-40,97.36Q783,464.49,768.26,506.76t-24.7,76.39Q734.46,614.26,729.35,638.38ZM200.86,336.64a7.91,7.91,0,0,1-.35-1.24h0a8.15,8.15,0,0,1-.14-1.48v-7.74a37.94,37.94,0,0,1,5.39-20.3q5.36-8.72,15.86-14.41,10.23-5.55,25.43-8.26a200.74,200.74,0,0,1,34.84-2.67,196,196,0,0,1,30.82,2.33,155.56,155.56,0,0,1,27.84,7h0a122.3,122.3,0,0,1,23.62,11,93.81,93.81,0,0,1,18.77,15h0a174.74,174.74,0,0,1,14.52,17.3,152.56,152.56,0,0,1,11.44,18.12h0a102.1,102.1,0,0,1,7.42,17.17,50.36,50.36,0,0,1,2.56,15q0,13.2-8.48,26.79-8.26,13.25-24.58,26.86a241.91,241.91,0,0,1-38.55,25.81,403.14,403.14,0,0,1-39.83,18.95,95.34,95.34,0,0,1,20.21,6,89.92,89.92,0,0,1,26.56,17.39h0a78.39,78.39,0,0,1,17.84,24.17,66,66,0,0,1,6,27.93,62.84,62.84,0,0,1-2.62,17.8,78.53,78.53,0,0,1-7.74,17.52h0a113,113,0,0,1-12.57,17.15,161.61,161.61,0,0,1-17,16.52h0A313.57,313.57,0,0,1,298,654.84a303.36,303.36,0,0,1-43.68,21.47,269.5,269.5,0,0,1-44.75,13.54,213,213,0,0,1-43,4.54,80.67,80.67,0,0,1-22.81-3,53.76,53.76,0,0,1-18.13-9.09h0a43.25,43.25,0,0,1-11.83-13.71,34.71,34.71,0,0,1-4-16.47q0-11.33,6.55-40.21,6.48-28.6,19.37-74.63T165,440.63Q181.19,390.74,200.86,336.64Zm5.69-2.12h0a5.82,5.82,0,0,1,.55,2.23v.53l-.19.52Q187,392.39,170.73,442.53q-16.39,50.39-29.27,96.4t-19.3,74.34q-6.37,28.13-6.38,38.84a28.61,28.61,0,0,0,3.29,13.59,37.16,37.16,0,0,0,10.2,11.76h0a47.68,47.68,0,0,0,16.1,8.06,75,75,0,0,0,21.13,2.73,206.62,206.62,0,0,0,41.82-4.4,264.14,264.14,0,0,0,43.75-13.24,298,298,0,0,0,42.8-21.05,308.18,308.18,0,0,0,39.38-27.89h0a155.42,155.42,0,0,0,16.37-15.88,107.27,107.27,0,0,0,11.9-16.22h0a72.75,72.75,0,0,0,7.13-16.15,56.52,56.52,0,0,0,2.37-16A60,60,0,0,0,366.56,532a72.76,72.76,0,0,0-16.45-22.27h0a84,84,0,0,0-24.78-16.24,94.12,94.12,0,0,0-30.14-7l-13.55-1,12.67-4.93a420,420,0,0,0,50.1-23A235.53,235.53,0,0,0,382,432.39q15.6-13,23.33-25.4,7.51-12.06,7.52-23.53a44.3,44.3,0,0,0-2.27-13.12,96,96,0,0,0-7-16.14h0a146,146,0,0,0-11-17.37,169.09,169.09,0,0,0-14-16.7,88.43,88.43,0,0,0-17.56-14,116.35,116.35,0,0,0-22.48-10.49h0a149.49,149.49,0,0,0-26.74-6.73,191.14,191.14,0,0,0-29.9-2.23,194.43,194.43,0,0,0-33.79,2.57q-14.23,2.55-23.6,7.61-9.09,4.93-13.58,12.23a32,32,0,0,0-4.47,17.09v7.74a1.31,1.31,0,0,0,0,.33v0A1,1,0,0,0,206.55,334.52ZM278,458.41A446.08,446.08,0,0,1,209.16,480l-5,1.18,1.46-5q5-17.2,10.23-33.86t11-33.77v0q11.44-33.66,24.44-67.73l.56-1.46,1.49-.4q7.89-2.08,16.34-3.73c5.48-1.06,11.23-2,17.2-2.76l0,0c5.94-.71,12.25-1.26,18.87-1.64s13.21-.56,20-.56a155.91,155.91,0,0,1,23.88,1.58q10.25,1.61,16.29,4.9a23.56,23.56,0,0,1,9.63,9.19,27.22,27.22,0,0,1,3.22,13.53q0,18.51-11.94,36.13-11.7,17.31-34.91,33.79Q308.87,445.68,278,458.41Zm-65.15,14.4a432.53,432.53,0,0,0,62.87-20.05q30.11-12.43,52.65-28.46,22.29-15.85,33.39-32.23,10.86-16.05,10.87-32.68a21.23,21.23,0,0,0-2.42-10.5,17.54,17.54,0,0,0-7.19-6.83q-5.16-2.79-14.38-4.24a149.9,149.9,0,0,0-22.95-1.49q-10.31,0-19.68.54c-6.38.36-12.57.9-18.51,1.61h0c-5.69.74-11.3,1.65-16.79,2.72q-7.49,1.44-14.43,3.25-12.54,32.81-23.79,66.05h0q-5.6,16.62-10.92,33.65Q217.06,458.67,212.88,472.81ZM156.39,656.48a26.32,26.32,0,0,1-5-3.94l-1.21-1.21.41-1.68q4.13-17,8.64-33.64t9.44-32.43Q173.53,567.64,179,552q5.34-15.51,11.26-31l.59-1.56,1.59-.35q8.72-1.94,18.15-3.39c6.19-1,12.42-1.77,18.68-2.43s12.6-1.15,18.9-1.48,12.7-.5,18.87-.5a173.34,173.34,0,0,1,29,2.17,83.71,83.71,0,0,1,22.05,6.62v0q9.41,4.56,14.24,11.21a25.91,25.91,0,0,1,5,15.61,34.9,34.9,0,0,1-1.8,10.87,50,50,0,0,1-5.24,11h0a85.79,85.79,0,0,1-8.46,11.34,138.63,138.63,0,0,1-11.42,11.54A376.34,376.34,0,0,1,275.51,620a305.68,305.68,0,0,1-35.72,22.11h0a206.5,206.5,0,0,1-33.48,14.17c-10.34,3.2-19.7,4.81-28.14,4.81a78.75,78.75,0,0,1-8.8-.45,37,37,0,0,1-7.13-1.45A27.57,27.57,0,0,1,156.39,656.48Zm.52-7.14a21.31,21.31,0,0,0,2.61,1.92,22,22,0,0,0,4.56,2.08,30.94,30.94,0,0,0,5.93,1.19,72.84,72.84,0,0,0,8.14.4q11.79,0,26.36-4.52A200.2,200.2,0,0,0,237,636.66h0A301.27,301.27,0,0,0,272,615a368.75,368.75,0,0,0,34.28-27.87h0a132.24,132.24,0,0,0,10.9-11,79.7,79.7,0,0,0,7.86-10.55h0a43.91,43.91,0,0,0,4.62-9.64,29,29,0,0,0,1.49-9,19.88,19.88,0,0,0-3.78-12c-2.62-3.59-6.61-6.71-12-9.31h0A77.47,77.47,0,0,0,295,519.5a168.32,168.32,0,0,0-28-2.07q-9.42,0-18.55.48-9.28.48-18.6,1.45c-6.27.66-12.41,1.44-18.38,2.37q-8.06,1.26-16.19,3-5.44,14.35-10.6,29.23-5.34,15.53-10.22,31.42h0q-5,16-9.39,32.22Q160.84,633.15,156.91,649.34Z"/></svg>